<svg width="30" height="30" viewBox="0 0 30 30" fill="none" xmlns="http://www.w3.org/2000/svg">
<path d="M18.0429 24.4571C18.4334 24.8476 19.0666 24.8476 19.4571 24.4571C19.8476 24.0666 19.8476 23.4334 19.4571 23.0429L18.0429 24.4571ZM10 15L9.29289 14.2929C8.90237 14.6834 8.90237 15.3166 9.29289 15.7071L10 15ZM19.4571 6.95711C19.8476 6.56658 19.8476 5.93342 19.4571 5.54289C19.0666 5.15237 18.4334 5.15237 18.0429 5.54289L19.4571 6.95711ZM19.4571 23.0429L10.7071 14.2929L9.29289 15.7071L18.0429 24.4571L19.4571 23.0429ZM10.7071 15.7071L19.4571 6.95711L18.0429 5.54289L9.29289 14.2929L10.7071 15.7071Z" fill="current"/>
</svg>
