<svg width="30" height="30" viewBox="0 0 30 30" fill="none" xmlns="http://www.w3.org/2000/svg">
<path d="M11.9571 5.54289C11.5666 5.15237 10.9334 5.15237 10.5429 5.54289C10.1524 5.93342 10.1524 6.56658 10.5429 6.95711L11.9571 5.54289ZM20 15L20.7071 15.7071C21.0976 15.3166 21.0976 14.6834 20.7071 14.2929L20 15ZM10.5429 23.0429C10.1524 23.4334 10.1524 24.0666 10.5429 24.4571C10.9334 24.8476 11.5666 24.8476 11.9571 24.4571L10.5429 23.0429ZM10.5429 6.95711L19.2929 15.7071L20.7071 14.2929L11.9571 5.54289L10.5429 6.95711ZM19.2929 14.2929L10.5429 23.0429L11.9571 24.4571L20.7071 15.7071L19.2929 14.2929Z" fill="current"/>
</svg>
