<svg width="22" height="22" viewBox="0 0 22 22" fill="none" xmlns="http://www.w3.org/2000/svg">
<path d="M5.30748 13.814L5.70928 13.1807C5.51888 13.0599 5.28423 13.0312 5.07031 13.1025L5.30748 13.814ZM2.75 14.6665L2.03849 14.4293C1.94865 14.6988 2.0188 14.996 2.21967 15.1968C2.42054 15.3977 2.71767 15.4679 2.98717 15.378L2.75 14.6665ZM3.60249 12.109L4.31401 12.3462C4.38531 12.1323 4.35659 11.8976 4.23578 11.7072L3.60249 12.109ZM8.25 15.4165C11.7018 15.4165 14.5 12.6183 14.5 9.1665H13C13 11.7899 10.8734 13.9165 8.25 13.9165V15.4165ZM4.90568 14.4473C5.87318 15.0611 7.02124 15.4165 8.25 15.4165V13.9165C7.31413 13.9165 6.4436 13.6466 5.70928 13.1807L4.90568 14.4473ZM5.07031 13.1025L2.51283 13.955L2.98717 15.378L5.54465 14.5255L5.07031 13.1025ZM3.46151 14.9037L4.31401 12.3462L2.89098 11.8719L2.03849 14.4293L3.46151 14.9037ZM2 9.1665C2 10.3953 2.35536 11.5433 2.9692 12.5108L4.23578 11.7072C3.76989 10.9729 3.5 10.1024 3.5 9.1665H2ZM8.25 2.9165C4.79822 2.9165 2 5.71472 2 9.1665H3.5C3.5 6.54315 5.62665 4.4165 8.25 4.4165V2.9165ZM14.5 9.1665C14.5 5.71472 11.7018 2.9165 8.25 2.9165V4.4165C10.8734 4.4165 13 6.54315 13 9.1665H14.5Z" fill="#AAAAAA"/>
<path d="M8.55981 14.6573C9.31215 16.7985 11.3519 18.3335 13.7502 18.3335C14.8325 18.3335 15.8419 18.0209 16.6927 17.481L19.2502 18.3335L18.3977 15.776L18.5279 15.56C18.9876 14.7564 19.2502 13.8256 19.2502 12.8335C19.2502 9.79594 16.7878 7.3335 13.7502 7.3335L13.544 7.33729L13.4405 7.34279" stroke="#AAAAAA" stroke-width="1.5" stroke-linecap="round" stroke-linejoin="round"/>
</svg>
