<svg width="22" height="22" viewBox="0 0 22 22" fill="none" xmlns="http://www.w3.org/2000/svg">
<path d="M17.3518 10.0841L16.6094 10.1902C16.6629 10.5646 16.9868 10.8405 17.3649 10.834L17.3518 10.0841ZM5.19621 8.26008L5.2452 9.00848C5.51698 8.99069 5.75776 8.82695 5.87421 8.58073L5.19621 8.26008ZM17.4167 18.1668C19.856 18.1668 21.8334 16.1894 21.8334 13.7502H20.3334C20.3334 15.361 19.0276 16.6668 17.4167 16.6668V18.1668ZM21.8334 13.7502C21.8334 11.3109 19.856 9.3335 17.4167 9.3335V10.8335C19.0276 10.8335 20.3334 12.1393 20.3334 13.7502H21.8334ZM17.4167 9.3335C17.3906 9.3335 17.3647 9.33373 17.3388 9.33418L17.3649 10.834C17.3822 10.8336 17.3995 10.8335 17.4167 10.8335V9.3335ZM18.0943 9.97793C17.5977 6.50386 14.6114 3.8335 11.0001 3.8335V5.3335C13.8544 5.3335 16.2169 7.44451 16.6094 10.1902L18.0943 9.97793ZM11.0001 3.8335C8.13571 3.8335 5.66534 5.51393 4.51821 7.93942L5.87421 8.58073C6.7827 6.6598 8.73726 5.3335 11.0001 5.3335V3.8335ZM5.14723 7.51168C2.36584 7.69373 0.166748 10.0065 0.166748 12.8335H1.66675C1.66675 10.8021 3.24731 9.13924 5.2452 9.00848L5.14723 7.51168ZM0.166748 12.8335C0.166748 15.779 2.55456 18.1668 5.50008 18.1668V16.6668C3.38299 16.6668 1.66675 14.9506 1.66675 12.8335H0.166748ZM17.4167 16.6668H5.50008V18.1668H17.4167V16.6668Z" fill="#AAAAAA"/>
<path d="M11 8.25V13.75" stroke="#AAAAAA" stroke-width="1.5" stroke-linecap="round" stroke-linejoin="round"/>
<path d="M13.75 11.9165L11 13.7498L8.25 11.9165" stroke="#AAAAAA" stroke-width="1.5" stroke-linecap="round" stroke-linejoin="round"/>
</svg>
