<svg width="15" height="15" viewBox="0 0 15 15" fill="none" xmlns="http://www.w3.org/2000/svg">
<path d="M5 12.4999V12.9999C5.13261 12.9999 5.25979 12.9472 5.35355 12.8535L5 12.4999ZM2.5 12.4999H2C2 12.776 2.22386 12.9999 2.5 12.9999V12.4999ZM2.5 9.99991L2.14645 9.64635C2.05268 9.74012 2 9.8673 2 9.99991H2.5ZM9.55806 2.94185L9.91161 3.2954L9.91161 3.2954L9.55806 2.94185ZM10.4419 2.94185L10.0884 3.2954L10.0884 3.2954L10.4419 2.94185ZM12.0581 4.55796L12.4116 4.20441L12.4116 4.20441L12.0581 4.55796ZM12.0581 5.44185L11.7045 5.08829L11.7045 5.08829L12.0581 5.44185ZM5 11.9999H2.5V12.9999H5V11.9999ZM3 12.4999V9.99991H2V12.4999H3ZM2.85355 10.3535L9.91161 3.2954L9.2045 2.58829L2.14645 9.64635L2.85355 10.3535ZM10.0884 3.2954L11.7045 4.91152L12.4116 4.20441L10.7955 2.58829L10.0884 3.2954ZM11.7045 5.08829L4.64645 12.1464L5.35355 12.8535L12.4116 5.7954L11.7045 5.08829ZM11.7045 4.91152C11.7533 4.96033 11.7533 5.03948 11.7045 5.08829L12.4116 5.7954C12.851 5.35606 12.851 4.64375 12.4116 4.20441L11.7045 4.91152ZM9.91161 3.2954C9.96043 3.24659 10.0396 3.24659 10.0884 3.2954L10.7955 2.58829C10.3562 2.14895 9.64384 2.14895 9.2045 2.58829L9.91161 3.2954Z" fill="#AAAAAA"/>
<path d="M7.5 5L10 7.5" stroke="#AAAAAA" stroke-linecap="round" stroke-linejoin="round"/>
</svg>
