<svg width="28" height="28" viewBox="0 0 28 28" fill="none" xmlns="http://www.w3.org/2000/svg">
<path d="M23.3333 23.3333L23.3333 22.3333L23.3333 22.3333L23.3333 23.3333ZM4.66667 23.3333L4.66667 24.3333H4.66667L4.66667 23.3333ZM3.5 22.1667L4.5 22.1667L4.5 22.1667L3.5 22.1667ZM3.5 7L3.5 6C3.23478 6 2.98043 6.10536 2.79289 6.29289C2.60536 6.48043 2.5 6.73478 2.5 7L3.5 7ZM23.3333 7L23.3333 6L23.3333 6L23.3333 7ZM24.5 8.16667L25.5 8.16667L25.5 8.16667L24.5 8.16667ZM24.5 22.1667L23.5 22.1667L23.5 22.1667L24.5 22.1667ZM23.3333 22.3333L4.66667 22.3333L4.66667 24.3333L23.3333 24.3333L23.3333 22.3333ZM4.5 22.1667L4.5 7L2.5 7L2.5 22.1667L4.5 22.1667ZM3.5 8L23.3333 8L23.3333 6L3.5 6L3.5 8ZM23.3333 8C23.4254 8 23.5 8.07462 23.5 8.16667L25.5 8.16667C25.5 6.97005 24.53 6 23.3333 6L23.3333 8ZM4.66667 22.3333C4.57462 22.3333 4.5 22.2587 4.5 22.1667L2.5 22.1667C2.5 23.3633 3.47005 24.3333 4.66667 24.3333L4.66667 22.3333ZM23.3333 24.3333C24.53 24.3333 25.5 23.3633 25.5 22.1667L23.5 22.1667C23.5 22.2587 23.4254 22.3333 23.3333 22.3333L23.3333 24.3333ZM23.5 8.16667L23.5 22.1667L25.5 22.1667L25.5 8.16667L23.5 8.16667Z" fill="#AAAAAA"/>
<path d="M14 7.00033L12.0084 5.0087C11.7896 4.78991 11.4928 4.66699 11.1834 4.66699H4.66667C4.02233 4.66699 3.5 5.18933 3.5 5.83366V7.00033" stroke="#AAAAAA" stroke-width="2" stroke-linecap="round" stroke-linejoin="round"/>
</svg>
