<svg width="28" height="28" viewBox="0 0 28 28" fill="none" xmlns="http://www.w3.org/2000/svg">
<path d="M23.3333 23.3333L23.3333 22.3333L23.3333 22.3333L23.3333 23.3333ZM4.66667 23.3333L4.66667 24.3333H4.66667L4.66667 23.3333ZM3.5 22.1667L4.5 22.1667L4.5 22.1667L3.5 22.1667ZM3.5 7L3.5 6C3.23478 6 2.98043 6.10536 2.79289 6.29289C2.60536 6.48043 2.5 6.73478 2.5 7L3.5 7ZM24.5 8.16667L25.5 8.16667L25.5 8.16667L24.5 8.16667ZM24.5 22.1667L23.5 22.1667L23.5 22.1667L24.5 22.1667ZM23.3333 7L23.3333 6L23.3333 6L23.3333 7ZM23.3333 22.3333L4.66667 22.3333L4.66667 24.3333L23.3333 24.3333L23.3333 22.3333ZM4.5 22.1667L4.5 7L2.5 7L2.5 22.1667L4.5 22.1667ZM23.5 8.16667L23.5 22.1667L25.5 22.1667L25.5 8.16667L23.5 8.16667ZM3.5 8L23.3333 8L23.3333 6L3.5 6L3.5 8ZM25.5 8.16667C25.5 6.97005 24.53 6 23.3333 6L23.3333 8C23.4254 8 23.5 8.07462 23.5 8.16667L25.5 8.16667ZM4.66667 22.3333C4.57462 22.3333 4.5 22.2587 4.5 22.1667L2.5 22.1667C2.5 23.3633 3.47005 24.3333 4.66667 24.3333L4.66667 22.3333ZM23.3333 24.3333C24.53 24.3333 25.5 23.3633 25.5 22.1667L23.5 22.1667C23.5 22.2587 23.4254 22.3333 23.3333 22.3333L23.3333 24.3333Z" fill="#AAAAAA"/>
<path d="M13.25 18.667C13.25 19.0812 13.5858 19.417 14 19.417C14.4142 19.417 14.75 19.0812 14.75 18.667H13.25ZM14.75 11.667C14.75 11.2528 14.4142 10.917 14 10.917C13.5858 10.917 13.25 11.2528 13.25 11.667H14.75ZM14.75 18.667V11.667H13.25V18.667H14.75Z" fill="#AAAAAA"/>
<path d="M10.5 14.417C10.0858 14.417 9.75 14.7528 9.75 15.167C9.75 15.5812 10.0858 15.917 10.5 15.917L10.5 14.417ZM17.5 15.917C17.9142 15.917 18.25 15.5812 18.25 15.167C18.25 14.7528 17.9142 14.417 17.5 14.417L17.5 15.917ZM10.5 15.917L17.5 15.917L17.5 14.417L10.5 14.417L10.5 15.917Z" fill="#AAAAAA"/>
<path d="M14 7.00033L12.0084 5.0087C11.7896 4.78991 11.4928 4.66699 11.1834 4.66699H4.66667C4.02233 4.66699 3.5 5.18933 3.5 5.83366V7.00033" stroke="#AAAAAA" stroke-width="2" stroke-linecap="round" stroke-linejoin="round"/>
</svg>
