<svg width="34" height="33" viewBox="0 0 34 33" fill="none" xmlns="http://www.w3.org/2000/svg">
<g filter="url(#filter0_d_273_2863)">
<circle cx="17.3008" cy="16.5" r="12.5" fill="current"/>
</g>
<path fill-rule="evenodd" clip-rule="evenodd" d="M9.62967 26.3692C9.61622 26.1794 9.60938 25.9878 9.60938 25.7945C9.60938 22.777 11.2774 20.149 13.7417 18.7824C12.8358 17.8252 12.2803 16.533 12.2803 15.1111C12.2803 12.1609 14.6719 9.76929 17.6221 9.76929C20.5724 9.76929 22.964 12.1609 22.964 15.1111C22.964 16.533 22.4085 17.8252 21.5026 18.7823C23.967 20.149 25.635 22.7769 25.635 25.7945C25.635 25.802 25.635 25.8095 25.635 25.817C23.4235 27.7963 20.5031 28.9999 17.3017 28.9999C14.4099 28.9999 11.7475 28.0179 9.62967 26.3692Z" fill="white"/>
<defs>
<filter id="filter0_d_273_2863" x="0.800781" y="0" width="33" height="33" filterUnits="userSpaceOnUse" color-interpolation-filters="sRGB">
<feFlood flood-opacity="0" result="BackgroundImageFix"/>
<feColorMatrix in="SourceAlpha" type="matrix" values="0 0 0 0 0 0 0 0 0 0 0 0 0 0 0 0 0 0 127 0" result="hardAlpha"/>
<feOffset/>
<feGaussianBlur stdDeviation="2"/>
<feComposite in2="hardAlpha" operator="out"/>
<feColorMatrix type="matrix" values="0 0 0 0 0 0 0 0 0 0 0 0 0 0 0 0 0 0 0.25 0"/>
<feBlend mode="normal" in2="BackgroundImageFix" result="effect1_dropShadow_273_2863"/>
<feBlend mode="normal" in="SourceGraphic" in2="effect1_dropShadow_273_2863" result="shape"/>
</filter>
</defs>
</svg>
