<svg width="40" height="40" fill="none" xmlns="http://www.w3.org/2000/svg"><path d="M5 31.667h1-1ZM5 10V9a1 1 0 0 0-1 1h1Zm28.333 0V9v1ZM35 11.667h-1 1Zm-1 1.666a1 1 0 1 0 2 0h-2Zm-22.333 21a1 1 0 1 0 0-2v2Zm-5-1v1-1ZM6 31.667V10H4v21.667h2ZM5 11h28.333V9H5v2Zm29 .667v1.666h2v-1.666h-2ZM11.667 32.333h-5v2h5v-2ZM33.333 11c.369 0 .667.299.667.667h2A2.667 2.667 0 0 0 33.333 9v2ZM4 31.667a2.667 2.667 0 0 0 2.667 2.666v-2A.667.667 0 0 1 6 31.667H4Z" fill="current"/><path d="M18.334 35H22.5L35 22.5l-4.166-4.167-12.5 12.5V35ZM26.666 23.333 30 26.667M20 10l-2.845-2.845a1.667 1.667 0 0 0-1.179-.488h-9.31C5.747 6.667 5 7.413 5 8.333V10" stroke="#current" stroke-width="2" stroke-linecap="round" stroke-linejoin="round"/></svg>