<svg width="15" height="15" viewBox="0 0 15 15" fill="none" xmlns="http://www.w3.org/2000/svg">
<path d="M7.5 10C8.88071 10 10 8.88071 10 7.5C10 6.11929 8.88071 5 7.5 5C6.11929 5 5 6.11929 5 7.5C5 8.88071 6.11929 10 7.5 10Z" stroke="#47D2D2" stroke-linecap="round" stroke-linejoin="round"/>
<path d="M11.9374 4.89124L12.3704 4.64115L12.3704 4.64115L11.9374 4.89124ZM11.9785 4.9624L11.5456 5.2125L11.5456 5.2125L11.9785 4.9624ZM12.4532 5.42951L12.6963 4.99257L12.6963 4.99257L12.4532 5.42951ZM13.4227 5.96883L13.1796 6.40577L13.1796 6.40577L13.4227 5.96883ZM13.7439 6.51358L13.2439 6.51472L13.2439 6.51472L13.7439 6.51358ZM13.7483 8.48347L13.2483 8.48461L13.2483 8.48461L13.7483 8.48347ZM13.4263 9.03156L13.1839 8.59423L13.1839 8.59423L13.4263 9.03156ZM12.4545 9.57011L12.6968 10.0074L12.6968 10.0074L12.4545 9.57011ZM11.978 10.0382L11.545 9.78811L11.545 9.78811L11.978 10.0382ZM11.9374 10.1084L12.3704 10.3585L12.3704 10.3585L11.9374 10.1084ZM11.77 10.7547L11.2701 10.7631L11.2701 10.7631L11.77 10.7547ZM11.7887 11.8678L11.2888 11.8762L11.2888 11.8762L11.7887 11.8678ZM11.4775 12.4188L11.2265 11.9864L11.2265 11.9864L11.4775 12.4188ZM9.77254 13.4084L10.0235 13.8408L10.0235 13.8408L9.77254 13.4084ZM9.13711 13.4037L9.39447 12.975L9.39447 12.975L9.13711 13.4037ZM8.18332 12.8311L7.92597 13.2597L7.92597 13.2597L8.18332 12.8311ZM6.81547 12.8303L7.07233 13.2593L7.07233 13.2593L6.81547 12.8303ZM5.86604 13.3988L5.60918 12.9698L5.60918 12.9698L5.86604 13.3988ZM5.23291 13.4041L5.48255 12.9709L5.48255 12.9709L5.23291 13.4041ZM3.52251 12.4185L3.77216 11.9853L3.77216 11.9853L3.52251 12.4185ZM3.20966 11.8664L3.70959 11.8749L3.70959 11.8749L3.20966 11.8664ZM3.22837 10.7582L2.72844 10.7498L2.72844 10.7498L3.22837 10.7582ZM3.0634 10.1162L3.49734 9.86776L3.49734 9.86776L3.0634 10.1162ZM3.01994 10.0402L2.586 10.2886L2.586 10.2886L3.01994 10.0402ZM2.54277 9.56885L2.2997 10.0058L2.2997 10.0058L2.54277 9.56885ZM1.57563 9.03083L1.33256 9.46777L1.33256 9.46777L1.57563 9.03083ZM1.25448 8.48607L0.754477 8.48721L1.25448 8.48607ZM1.25 6.51618L1.75 6.51505L1.25 6.51618ZM1.57205 5.96809L1.81441 6.40543L1.81441 6.40543L1.57205 5.96809ZM2.54386 5.42955L2.3015 4.99221L2.3015 4.99221L2.54386 5.42955ZM3.02036 4.96145L2.5874 4.71135L2.5874 4.71136L3.02036 4.96145ZM3.06091 4.89125L3.49387 5.14134L3.49387 5.14134L3.06091 4.89125ZM3.22834 4.24498L3.72827 4.23656L3.72827 4.23656L3.22834 4.24498ZM3.20961 3.13191L2.70968 3.14032L2.70968 3.14032L3.20961 3.13191ZM3.52079 2.58084L3.77178 3.01328L3.77178 3.01328L3.52079 2.58084ZM5.22578 1.59128L5.47677 2.02373L5.47677 2.02373L5.22578 1.59128ZM5.86121 1.59599L5.60385 2.02467L5.60385 2.02467L5.86121 1.59599ZM6.815 2.16859L6.55765 2.59727L6.55765 2.59727L6.815 2.16859ZM8.18286 2.16934L7.926 1.74036L7.926 1.74036L8.18286 2.16934ZM9.13229 1.60085L8.87543 1.17187L8.87543 1.17187L9.13229 1.60085ZM9.76542 1.59555L10.0151 1.16233L10.0151 1.16233L9.76542 1.59555ZM11.4758 2.58117L11.7255 2.14796L11.7255 2.14796L11.4758 2.58117ZM11.7887 3.13321L11.2888 3.1248L11.2888 3.1248L11.7887 3.13321ZM11.77 4.24498L11.2701 4.23656L11.2701 4.23657L11.77 4.24498ZM11.5045 5.14134L11.5456 5.2125L12.4115 4.71231L12.3704 4.64115L11.5045 5.14134ZM12.2102 5.86645L13.1796 6.40577L13.6658 5.53189L12.6963 4.99257L12.2102 5.86645ZM13.2439 6.51472L13.2483 8.48461L14.2483 8.48234L14.2438 6.51245L13.2439 6.51472ZM13.1839 8.59423L12.2121 9.13277L12.6968 10.0074L13.6686 9.4689L13.1839 8.59423ZM11.545 9.78811L11.5045 9.85832L12.3704 10.3585L12.4109 10.2883L11.545 9.78811ZM11.2701 10.7631L11.2888 11.8762L12.2886 11.8593L12.2699 10.7463L11.2701 10.7631ZM11.2265 11.9864L9.52156 12.9759L10.0235 13.8408L11.7285 12.8513L11.2265 11.9864ZM9.39447 12.975L8.44068 12.4024L7.92597 13.2597L8.87976 13.8324L9.39447 12.975ZM7.53993 12.1528H7.45762V13.1528H7.53993V12.1528ZM6.5586 12.4013L5.60918 12.9698L6.1229 13.8278L7.07233 13.2593L6.5586 12.4013ZM5.48255 12.9709L3.77216 11.9853L3.27287 12.8517L4.98327 13.8373L5.48255 12.9709ZM3.70959 11.8749L3.72829 10.7667L2.72844 10.7498L2.70973 11.858L3.70959 11.8749ZM3.49734 9.86776L3.45388 9.79185L2.586 10.2886L2.62945 10.3645L3.49734 9.86776ZM2.78585 9.13192L1.81871 8.59389L1.33256 9.46777L2.2997 10.0058L2.78585 9.13192ZM1.75447 8.48494L1.75 6.51505L0.750003 6.51732L0.754477 8.48721L1.75447 8.48494ZM1.81441 6.40543L2.78621 5.86689L2.3015 4.99221L1.3297 5.53076L1.81441 6.40543ZM3.45331 5.21155L3.49387 5.14134L2.62795 4.64115L2.5874 4.71135L3.45331 5.21155ZM3.72827 4.23656L3.70954 3.1235L2.70968 3.14032L2.72841 4.25339L3.72827 4.23656ZM3.77178 3.01328L5.47677 2.02373L4.9748 1.15884L3.26981 2.1484L3.77178 3.01328ZM5.60385 2.02467L6.55765 2.59727L7.07236 1.73991L6.11857 1.1673L5.60385 2.02467ZM7.4584 2.84689H7.54071V1.84689H7.4584V2.84689ZM8.43972 2.59832L9.38915 2.02983L8.87543 1.17187L7.926 1.74036L8.43972 2.59832ZM9.51577 2.02877L11.2262 3.01439L11.7255 2.14796L10.0151 1.16233L9.51577 2.02877ZM11.2888 3.1248L11.2701 4.23656L12.2699 4.25339L12.2886 3.14162L11.2888 3.1248ZM11.2262 3.01439C11.2656 3.03708 11.2895 3.07936 11.2888 3.1248L12.2886 3.14162C12.2955 2.73266 12.0799 2.35218 11.7255 2.14796L11.2262 3.01439ZM9.38915 2.02983C9.42804 2.00654 9.4765 2.00613 9.51577 2.02877L10.0151 1.16233C9.66156 0.958621 9.22547 0.962272 8.87543 1.17187L9.38915 2.02983ZM7.54071 2.84689C7.85735 2.84689 8.16806 2.76098 8.43972 2.59832L7.926 1.74036C7.80957 1.81007 7.67641 1.84689 7.54071 1.84689V2.84689ZM6.55765 2.59727C6.82971 2.76061 7.14107 2.84689 7.4584 2.84689V1.84689C7.3224 1.84689 7.18896 1.80991 7.07236 1.73991L6.55765 2.59727ZM5.47677 2.02373C5.51614 2.00087 5.56482 2.00123 5.60385 2.02467L6.11857 1.1673C5.7673 0.95642 5.32915 0.953177 4.9748 1.15884L5.47677 2.02373ZM3.70954 3.1235C3.70878 3.07819 3.73259 3.03603 3.77178 3.01328L3.26981 2.1484C2.91713 2.35309 2.70282 2.7326 2.70968 3.14032L3.70954 3.1235ZM3.49387 5.14134C3.65258 4.86658 3.73361 4.55383 3.72827 4.23656L2.72841 4.25339C2.7307 4.38936 2.69597 4.52339 2.62795 4.64115L3.49387 5.14134ZM2.78621 5.86689C3.06391 5.713 3.29451 5.48646 3.45331 5.21155L2.5874 4.71136C2.51934 4.82918 2.42051 4.92626 2.3015 4.99221L2.78621 5.86689ZM1.75 6.51505C1.7499 6.4695 1.77457 6.42751 1.81441 6.40543L1.3297 5.53076C0.971162 5.72945 0.749072 6.10742 0.750003 6.51732L1.75 6.51505ZM1.81871 8.59389C1.77915 8.57188 1.75458 8.53021 1.75447 8.48494L0.754477 8.48721C0.755403 8.89463 0.97653 9.2697 1.33256 9.46777L1.81871 8.59389ZM3.45388 9.79185C3.29548 9.51512 3.06449 9.28693 2.78584 9.13192L2.2997 10.0058C2.41912 10.0722 2.51812 10.17 2.586 10.2886L3.45388 9.79185ZM3.72829 10.7667C3.73361 10.4517 3.65382 10.1411 3.49734 9.86776L2.62945 10.3645C2.69652 10.4817 2.73072 10.6148 2.72844 10.7498L3.72829 10.7667ZM3.77216 11.9853C3.73278 11.9626 3.70882 11.9203 3.70959 11.8749L2.70973 11.858C2.70282 12.267 2.91846 12.6475 3.27287 12.8517L3.77216 11.9853ZM5.60918 12.9698C5.57029 12.9931 5.52183 12.9935 5.48255 12.9709L4.98327 13.8373C5.33677 14.041 5.77286 14.0374 6.1229 13.8278L5.60918 12.9698ZM7.45762 12.1528C7.14098 12.1528 6.83027 12.2387 6.5586 12.4013L7.07233 13.2593C7.18875 13.1896 7.32191 13.1528 7.45762 13.1528V12.1528ZM8.44068 12.4024C8.16862 12.239 7.85726 12.1528 7.53993 12.1528V13.1528C7.67593 13.1528 7.80937 13.1897 7.92597 13.2597L8.44068 12.4024ZM9.52156 12.9759C9.48219 12.9988 9.4335 12.9984 9.39447 12.975L8.87976 13.8324C9.23103 14.0432 9.66917 14.0465 10.0235 13.8408L9.52156 12.9759ZM11.2888 11.8762C11.2895 11.9215 11.2657 11.9636 11.2265 11.9864L11.7285 12.8513C12.0812 12.6466 12.2955 12.2671 12.2886 11.8593L11.2888 11.8762ZM11.5045 9.85832C11.3457 10.1331 11.2647 10.4458 11.2701 10.7631L12.2699 10.7463C12.2676 10.6103 12.3024 10.4763 12.3704 10.3585L11.5045 9.85832ZM12.2121 9.13277C11.9344 9.28666 11.7038 9.51319 11.545 9.78811L12.4109 10.2883C12.479 10.1705 12.5778 10.0734 12.6968 10.0074L12.2121 9.13277ZM13.2483 8.48461C13.2484 8.53015 13.2238 8.57215 13.1839 8.59423L13.6686 9.4689C14.0272 9.27021 14.2493 8.89224 14.2483 8.48234L13.2483 8.48461ZM13.1796 6.40577C13.2192 6.42778 13.2437 6.46945 13.2439 6.51472L14.2438 6.51245C14.2429 6.10503 14.0218 5.72995 13.6658 5.53189L13.1796 6.40577ZM11.5456 5.2125C11.7039 5.48657 11.9336 5.71258 12.2102 5.86645L12.6963 4.99257C12.5778 4.92663 12.4793 4.82977 12.4115 4.71231L11.5456 5.2125ZM12.3704 4.64115C12.3024 4.52339 12.2676 4.38936 12.2699 4.25339L11.2701 4.23657C11.2647 4.55383 11.3457 4.86658 11.5045 5.14134L12.3704 4.64115Z" fill="#47D2D2"/>
</svg>
