<svg width="15" height="15" viewBox="0 0 15 15" fill="none" xmlns="http://www.w3.org/2000/svg">
<path d="M7.14645 9.02145C6.95118 9.21671 6.95118 9.53329 7.14645 9.72855C7.34171 9.92382 7.65829 9.92382 7.85355 9.72855L7.14645 9.02145ZM9.375 7.5L9.72855 7.85355C9.82232 7.75978 9.875 7.63261 9.875 7.5C9.875 7.36739 9.82232 7.24021 9.72855 7.14645L9.375 7.5ZM7.85355 5.27145C7.65829 5.07618 7.34171 5.07618 7.14645 5.27145C6.95118 5.46671 6.95118 5.78329 7.14645 5.97855L7.85355 5.27145ZM2.5 7C2.22386 7 2 7.22386 2 7.5C2 7.77614 2.22386 8 2.5 8L2.5 7ZM7.85355 9.72855L9.72855 7.85355L9.02145 7.14645L7.14645 9.02145L7.85355 9.72855ZM9.72855 7.14645L7.85355 5.27145L7.14645 5.97855L9.02145 7.85355L9.72855 7.14645ZM2.5 8L9.375 8V7L2.5 7L2.5 8Z" fill="#47D2D2"/>
<path d="M5.625 4.375V3.125C5.625 2.77982 5.90482 2.5 6.25 2.5H11.875C12.2202 2.5 12.5 2.77982 12.5 3.125V11.875C12.5 12.2202 12.2202 12.5 11.875 12.5H6.25C5.90482 12.5 5.625 12.2202 5.625 11.875V10.625" stroke="#47D2D2" stroke-linecap="round" stroke-linejoin="round"/>
</svg>
