<svg width="24px" height="24px" viewBox="0 0 40 40" fill="none" xmlns="http://www.w3.org/2000/svg">
<path d="M15 28.3335V27.3335C14.4477 27.3335 14 27.7812 14 28.3335H15ZM25 28.3335H26C26 27.7812 25.5523 27.3335 25 27.3335V28.3335ZM15 29.3335H25V27.3335H15V29.3335ZM24 28.3335V30.0002H26V28.3335H24ZM16 30.0002V28.3335H14V30.0002H16ZM20 34.0002C17.7909 34.0002 16 32.2093 16 30.0002H14C14 33.3139 16.6863 36.0002 20 36.0002V34.0002ZM24 30.0002C24 32.2093 22.2091 34.0002 20 34.0002V36.0002C23.3137 36.0002 26 33.3139 26 30.0002H24Z" fill="#aaaaaa"/>
<path d="M7.1549 24.5119L6.4478 23.8048H6.4478L7.1549 24.5119ZM8.00628 23.6605L8.71338 24.3676H8.71338L8.00628 23.6605ZM31.9939 23.6604L32.701 22.9533L31.9939 23.6604ZM32.8453 24.5119L33.5524 23.8048L33.5524 23.8048L32.8453 24.5119ZM20.0001 5L20.0001 6L20.0001 5ZM31.6667 27.3334H8.33341V29.3334H31.6667V27.3334ZM7.66675 26.6667V25.6904H5.66675V26.6667H7.66675ZM7.86201 25.219L8.71338 24.3676L7.29917 22.9534L6.4478 23.8048L7.86201 25.219ZM9.33341 22.8707V16.6667H7.33341V22.8707H9.33341ZM30.6667 16.6667V22.8707H32.6667V16.6667H30.6667ZM31.2868 24.3675L32.1382 25.219L33.5524 23.8048L32.701 22.9533L31.2868 24.3675ZM32.3334 25.6904V26.6667H34.3334V25.6904H32.3334ZM32.1382 25.219C32.2632 25.344 32.3334 25.5136 32.3334 25.6904H34.3334C34.3334 24.9831 34.0525 24.3049 33.5524 23.8048L32.1382 25.219ZM30.6667 22.8707C30.6667 23.4321 30.8898 23.9705 31.2868 24.3675L32.701 22.9533C32.6791 22.9314 32.6667 22.9017 32.6667 22.8707H30.6667ZM32.6667 16.6667C32.6667 9.67105 26.9957 3.99998 20 4L20.0001 6C25.8911 5.99999 30.6667 10.7756 30.6667 16.6667H32.6667ZM9.33341 16.6667C9.33341 10.7756 14.109 6.00001 20.0001 6L20 4C13.0045 4.00002 7.33341 9.67107 7.33341 16.6667H9.33341ZM8.71338 24.3676C9.11038 23.9706 9.33341 23.4322 9.33341 22.8707H7.33341C7.33341 22.9017 7.3211 22.9315 7.29917 22.9534L8.71338 24.3676ZM7.66675 25.6904C7.66675 25.5136 7.73699 25.344 7.86201 25.219L6.4478 23.8048C5.9477 24.3049 5.66675 24.9831 5.66675 25.6904H7.66675ZM8.33341 27.3334C7.96522 27.3334 7.66675 27.0349 7.66675 26.6667H5.66675C5.66675 28.1395 6.86066 29.3334 8.33341 29.3334V27.3334ZM31.6667 29.3334C33.1395 29.3334 34.3334 28.1395 34.3334 26.6667H32.3334C32.3334 27.0349 32.0349 27.3334 31.6667 27.3334V29.3334Z" fill="#aaaaaa"/>
</svg>
