<svg width="2.813rem" height="2.813rem" viewBox="0 0 2.813rem 2.813rem" fill="none" xmlns="http://www.w3.org/2000/svg">
<rect width="2.813rem" height="2.813rem" rx="10" fill="current"/>
<path d="M21.5234 29.7168L26.582 33.7227L24.8047 35.3633L19.8281 31.4121L21.5234 29.7168ZM26.5137 21.418V22.6758C26.5137 24.1706 26.3268 25.5104 25.9531 26.6953C25.5794 27.8802 25.0417 28.8874 24.3398 29.7168C23.638 30.5462 22.7949 31.1797 21.8105 31.6172C20.8353 32.0547 19.7415 32.2734 18.5293 32.2734C17.3535 32.2734 16.2734 32.0547 15.2891 31.6172C14.3138 31.1797 13.4661 30.5462 12.7461 29.7168C12.0352 28.8874 11.4837 27.8802 11.0918 26.6953C10.6999 25.5104 10.5039 24.1706 10.5039 22.6758V21.418C10.5039 19.9232 10.6953 18.5879 11.0781 17.4121C11.4701 16.2272 12.0215 15.2201 12.7324 14.3906C13.4434 13.5521 14.2865 12.9141 15.2617 12.4766C16.2461 12.0391 17.3262 11.8203 18.502 11.8203C19.7142 11.8203 20.8125 12.0391 21.7969 12.4766C22.7812 12.9141 23.6243 13.5521 24.3262 14.3906C25.028 15.2201 25.5658 16.2272 25.9395 17.4121C26.3223 18.5879 26.5137 19.9232 26.5137 21.418ZM23.9023 22.6758V21.3906C23.9023 20.2057 23.7793 19.1576 23.5332 18.2461C23.2962 17.3346 22.9453 16.569 22.4805 15.9492C22.0156 15.3294 21.4505 14.86 20.7852 14.541C20.1198 14.222 19.3587 14.0625 18.502 14.0625C17.6908 14.0625 16.9525 14.222 16.2871 14.541C15.6309 14.86 15.0658 15.3294 14.5918 15.9492C14.1178 16.569 13.7533 17.3346 13.498 18.2461C13.2428 19.1576 13.1152 20.2057 13.1152 21.3906V22.6758C13.1152 23.8698 13.2428 24.9271 13.498 25.8477C13.7533 26.7591 14.1178 27.5293 14.5918 28.1582C15.0749 28.778 15.6491 29.2474 16.3145 29.5664C16.9798 29.8854 17.7181 30.0449 18.5293 30.0449C19.3861 30.0449 20.1471 29.8854 20.8125 29.5664C21.4779 29.2474 22.0384 28.778 22.4941 28.1582C22.959 27.5293 23.3099 26.7591 23.5469 25.8477C23.7839 24.9271 23.9023 23.8698 23.9023 22.6758ZM30.2461 30.6602C30.2461 30.2318 30.3783 29.8717 30.6426 29.5801C30.916 29.2793 31.3079 29.1289 31.8184 29.1289C32.3288 29.1289 32.7161 29.2793 32.9805 29.5801C33.2539 29.8717 33.3906 30.2318 33.3906 30.6602C33.3906 31.0794 33.2539 31.4349 32.9805 31.7266C32.7161 32.0182 32.3288 32.1641 31.8184 32.1641C31.3079 32.1641 30.916 32.0182 30.6426 31.7266C30.3783 31.4349 30.2461 31.0794 30.2461 30.6602Z" fill="white"/>
</svg>
