<svg width="25" height="25" viewBox="0 0 20 20" fill="none" xmlns="http://www.w3.org/2000/svg">
<path d="M9.16797 15.0003C9.16797 14.5401 9.54106 14.167 10.0013 14.167C10.4615 14.167 10.8346 14.5401 10.8346 15.0003C10.8346 15.4606 10.4615 15.8337 10.0013 15.8337C9.54106 15.8337 9.16797 15.4606 9.16797 15.0003Z" stroke="#AAAAAA" stroke-width="2" stroke-linecap="round" stroke-linejoin="round"/>
<path d="M9.16797 10.0003C9.16797 9.54009 9.54106 9.16699 10.0013 9.16699C10.4615 9.16699 10.8346 9.54009 10.8346 10.0003C10.8346 10.4606 10.4615 10.8337 10.0013 10.8337C9.54106 10.8337 9.16797 10.4606 9.16797 10.0003Z" stroke="#AAAAAA" stroke-width="2" stroke-linecap="round" stroke-linejoin="round"/>
<path d="M9.16797 5.00033C9.16797 4.54009 9.54106 4.16699 10.0013 4.16699C10.4615 4.16699 10.8346 4.54009 10.8346 5.00033C10.8346 5.46056 10.4615 5.83366 10.0013 5.83366C9.54106 5.83366 9.16797 5.46056 9.16797 5.00033Z" stroke="#AAAAAA" stroke-width="2" stroke-linecap="round" stroke-linejoin="round"/>
</svg>
