<svg width="25" height="25" viewBox="0 0 25 25" fill="none" xmlns="http://www.w3.org/2000/svg">
<path d="M18.75 21.875C20.4759 21.875 21.875 20.4759 21.875 18.75C21.875 17.0241 20.4759 15.625 18.75 15.625C17.0241 15.625 15.625 17.0241 15.625 18.75C15.625 20.4759 17.0241 21.875 18.75 21.875Z" fill="#47D2D2"/>
<path d="M9.375 14.0625L15.625 17.1875" stroke="#47D2D2" stroke-width="2" stroke-linecap="round" stroke-linejoin="round"/>
<path d="M6.25 15.625C7.97589 15.625 9.375 14.2259 9.375 12.5C9.375 10.7741 7.97589 9.375 6.25 9.375C4.52411 9.375 3.125 10.7741 3.125 12.5C3.125 14.2259 4.52411 15.625 6.25 15.625Z" fill="#47D2D2"/>
<path d="M15.625 7.8125L9.375 10.9375" stroke="#47D2D2" stroke-width="2" stroke-linecap="round" stroke-linejoin="round"/>
<path d="M18.75 9.375C20.4759 9.375 21.875 7.97589 21.875 6.25C21.875 4.52411 20.4759 3.125 18.75 3.125C17.0241 3.125 15.625 4.52411 15.625 6.25C15.625 7.97589 17.0241 9.375 18.75 9.375Z" fill="#47D2D2"/>
</svg>
