<svg width="30px" height="30px" viewBox="0 0 40 40" fill="none" xmlns="http://www.w3.org/2000/svg"><path d="M15 35h10" stroke="current" stroke-width="2" stroke-linecap="round" stroke-linejoin="round"/><path d="m27.883 21.153.788.616-.788-.616Zm-15.766 0-.788.616.788-.616ZM15 27.508h1-1ZM11 15a9 9 0 0 1 9-9V4C13.925 4 9 8.925 9 15h2Zm9-9a9 9 0 0 1 9 9h2c0-6.075-4.925-11-11-11v2Zm9 9c0 2.09-.71 4.01-1.905 5.537l1.576 1.232A10.957 10.957 0 0 0 31 15h-2Zm-16.095 5.537A8.957 8.957 0 0 1 11 15H9c0 2.552.87 4.903 2.329 6.77l1.576-1.233ZM23.333 29h-6.666v2h6.666v-2Zm-6.666 0a.667.667 0 0 1-.667-.666h-2A2.667 2.667 0 0 0 16.667 31v-2ZM24 28.334a.667.667 0 0 1-.667.666v2A2.667 2.667 0 0 0 26 28.334h-2Zm-8 0v-.826h-2v.826h2Zm8-.826v.826h2v-.826h-2Zm-12.671-5.739C12.802 23.653 14 25.507 14 27.508h2c0-2.76-1.637-5.105-3.095-6.97l-1.576 1.231Zm15.766-1.232C25.637 22.403 24 24.75 24 27.507h2c0-2 1.198-3.854 2.671-5.738l-1.576-1.232Z" fill="#aaaaaa" /></svg>