<svg width="22" height="22" viewBox="0 0 22 22" fill="none" xmlns="http://www.w3.org/2000/svg">
<rect x="0.25" y="0.25" width="21.5" height="21.5" rx="4.75" fill="white" stroke="#47D2D2" stroke-width="0.5"/>
<path d="M9.77821 14.4446C10.3305 14.4446 10.7782 13.9969 10.7782 13.4446C10.7782 12.8923 10.3305 12.4446 9.77821 12.4446V14.4446ZM6.72266 13.4446V12.4446C6.17037 12.4446 5.72266 12.8923 5.72266 13.4446H6.72266ZM5.72266 16.5001C5.72266 17.0524 6.17037 17.5001 6.72266 17.5001C7.27494 17.5001 7.72266 17.0524 7.72266 16.5001H5.72266ZM9.77821 12.4446H6.72266V14.4446H9.77821V12.4446ZM5.72266 13.4446V16.5001H7.72266V13.4446H5.72266Z" fill="#47D2D2"/>
<path d="M15.5336 12.8315C15.191 13.6796 14.6173 14.4145 13.8778 14.9528C13.1383 15.4911 12.2626 15.8111 11.3503 15.8765C10.438 15.9419 9.52558 15.7501 8.71685 15.3228C7.90812 14.8955 7.23549 14.2499 6.77539 13.4593" stroke="#47D2D2" stroke-width="2" stroke-linecap="round" stroke-linejoin="round"/>
<path d="M12.2227 7.55556C11.6704 7.55556 11.2227 8.00327 11.2227 8.55556C11.2227 9.10784 11.6704 9.55556 12.2227 9.55556V7.55556ZM15.2782 8.55556V9.55556C15.8305 9.55556 16.2782 9.10784 16.2782 8.55556H15.2782ZM16.2782 5.5C16.2782 4.94772 15.8305 4.5 15.2782 4.5C14.7259 4.5 14.2782 4.94772 14.2782 5.5H16.2782ZM12.2227 9.55556H15.2782V7.55556H12.2227V9.55556ZM16.2782 8.55556V5.5H14.2782V8.55556H16.2782Z" fill="#47D2D2"/>
<path d="M6.46777 9.16857C6.81041 8.3205 7.38409 7.58557 8.12361 7.04729C8.86312 6.50902 9.73881 6.18899 10.6511 6.1236C11.5635 6.0582 12.4758 6.25005 13.2846 6.67735C14.0933 7.10464 14.7659 7.75024 15.226 8.54077" stroke="#47D2D2" stroke-width="2" stroke-linecap="round" stroke-linejoin="round"/>
</svg>
