<svg width="60" height="60" viewBox="0 0 60 60" fill="none" xmlns="http://www.w3.org/2000/svg">
<path d="M17.5 50C17.5 45.8579 23.0964 42.5 30 42.5C36.9036 42.5 42.5 45.8579 42.5 50" stroke="#47D2D2" stroke-width="2" stroke-linecap="round" stroke-linejoin="round"/>
<path d="M45 35.6238C49.4148 36.7811 52.5 39.4242 52.5 42.4997" stroke="#47D2D2" stroke-width="2" stroke-linecap="round" stroke-linejoin="round"/>
<path d="M15 35.6238C10.5852 36.7811 7.5 39.4242 7.5 42.4997" stroke="#47D2D2" stroke-width="2" stroke-linecap="round" stroke-linejoin="round"/>
<path d="M30 35C34.1421 35 37.5 31.6421 37.5 27.5C37.5 23.3579 34.1421 20 30 20C25.8579 20 22.5 23.3579 22.5 27.5C22.5 31.6421 25.8579 35 30 35Z" stroke="#47D2D2" stroke-width="2" stroke-linecap="round" stroke-linejoin="round"/>
<path d="M45 25.5903C46.5344 24.217 47.5 22.2212 47.5 20C47.5 15.8579 44.1421 12.5 40 12.5C38.0791 12.5 36.3269 13.2221 35 14.4097" stroke="#47D2D2" stroke-width="2" stroke-linecap="round" stroke-linejoin="round"/>
<path d="M15 25.5903C13.4656 24.217 12.5 22.2212 12.5 20C12.5 15.8579 15.8579 12.5 20 12.5C21.9209 12.5 23.6731 13.2221 25 14.4097" stroke="#47D2D2" stroke-width="2" stroke-linecap="round" stroke-linejoin="round"/>
</svg>
