<svg width="60" height="60" viewBox="0 0 60 60" fill="none" xmlns="http://www.w3.org/2000/svg">
<path d="M22.5 32.5C25.2614 32.5 27.5 30.2614 27.5 27.5C27.5 24.7386 25.2614 22.5 22.5 22.5C19.7386 22.5 17.5 24.7386 17.5 27.5C17.5 30.2614 19.7386 32.5 22.5 32.5Z" stroke="#47D2D2" stroke-width="2" stroke-linecap="round" stroke-linejoin="round"/>
<path d="M50 15H10C8.61929 15 7.5 16.1193 7.5 17.5V42.5C7.5 43.8807 8.61929 45 10 45H50C51.3807 45 52.5 43.8807 52.5 42.5V17.5C52.5 16.1193 51.3807 15 50 15Z" stroke="#47D2D2" stroke-width="2" stroke-linecap="round" stroke-linejoin="round"/>
<path d="M15 45C15 42.2386 18.3579 40 22.5 40C26.6421 40 30 42.2386 30 45" stroke="#47D2D2" stroke-width="2" stroke-linecap="round" stroke-linejoin="round"/>
<path d="M45 35L35 35" stroke="#47D2D2" stroke-width="2" stroke-linecap="round" stroke-linejoin="round"/>
<path d="M45 27.5L37.5 27.5" stroke="#47D2D2" stroke-width="2" stroke-linecap="round" stroke-linejoin="round"/>
</svg>
