<svg width="15" height="17" viewBox="0 0 15 17" fill="none" xmlns="http://www.w3.org/2000/svg">
<path d="M4.4906 13.2387L5.02882 12.3959C4.77398 12.2332 4.45919 12.1945 4.17252 12.2906L4.4906 13.2387ZM1.875 14.1163L0.925704 13.8019C0.806624 14.1614 0.900917 14.5574 1.16927 14.8247C1.43763 15.0921 1.83398 15.1848 2.19308 15.0643L1.875 14.1163ZM2.74687 11.4836L3.69616 11.798C3.79015 11.5142 3.75224 11.2033 3.59282 10.9504L2.74687 11.4836ZM7.5 15.1163C11.165 15.1163 14.125 12.1276 14.125 8.45461H12.125C12.125 11.0353 10.0482 13.1163 7.5 13.1163V15.1163ZM3.95239 14.0815C4.97829 14.7367 6.19641 15.1163 7.5 15.1163V13.1163C6.58976 13.1163 5.74341 12.8522 5.02882 12.3959L3.95239 14.0815ZM4.17252 12.2906L1.55692 13.1682L2.19308 15.0643L4.80869 14.1868L4.17252 12.2906ZM2.8243 14.4306L3.69616 11.798L1.79757 11.1692L0.925704 13.8019L2.8243 14.4306ZM0.875 8.45461C0.875 9.76261 1.25091 10.9857 1.90091 12.0169L3.59282 10.9504C3.13854 10.2297 2.875 9.37487 2.875 8.45461H0.875ZM7.5 1.79297C3.835 1.79297 0.875 4.78162 0.875 8.45461H2.875C2.875 5.87393 4.9518 3.79297 7.5 3.79297V1.79297ZM14.125 8.45461C14.125 4.78162 11.165 1.79297 7.5 1.79297V3.79297C10.0482 3.79297 12.125 5.87393 12.125 8.45461H14.125Z" fill="#AAAAAA"/>
</svg>
